[Header]
FileType HTR
DataType HTRS
FileVersion 1
NumSegments 22
NumFrames 4
DataFrameRate 24
EulerRotationOrder ZYX
CalibrationUnits mm
RotationUnits Degrees
GlobalAxisofGravity Y
BoneLengthAxis Y
ScaleFactor 1.0
[SegmentNames&Hierarchy]
reference	GLOBAL
Hips	reference
Spine	Hips
Spine1	Spine
Neck	Spine1
Head	Neck
LeftShoulder	Spine1
LeftArm	LeftShoulder
LeftForeArm	LeftArm
LeftHand	LeftForeArm
RightShoulder	Spine1
RightArm	RightShoulder
RightForeArm	RightArm
RightHand	RightForeArm
LeftUpLeg	Hips
LeftLeg	LeftUpLeg
LeftFoot	LeftLeg
LeftToeBase	LeftFoot
RightUpLeg	Hips
RightLeg	RightUpLeg
RightFoot	RightLeg
RightToeBase	RightFoot
[BasePosition]
reference	0	0	0	0	0	0	1
Hips	0	0	0	0	0	0	1
Spine	0	0	0	-0	-90	0	1
Spine1	0	0	0	0	0	0	1
Neck	0	0	0	82.64767223	-82.64767223	-90	1
Head	0	0	0	-0	-90	0	1
LeftShoulder	0	0	0	0	0	0	1
LeftArm	0	0	0	0	0	0	1
LeftForeArm	0	0	0	0	0	0	1
LeftHand	0	0	0	0	0	0	1
RightShoulder	0	0	0	0	-0	180	1
RightArm	0	0	0	0	-0	180	1
RightForeArm	0	0	0	0	-0	180	1
RightHand	0	0	0	0	-0	180	1
LeftUpLeg	0	0	0	-0	90	0	1
LeftLeg	0	0	0	-0	90	0	1
LeftFoot	0	0	0	-23.42853957	23.42853957	-90	1
LeftToeBase	0	0	0	0	-0	-90	1
RightUpLeg	0	0	0	-0	90	0	1
RightLeg	0	0	0	-0	90	0	1
RightFoot	0	0	0	-23.42853957	23.42853957	-90	1
RightToeBase	0	0	0	0	-0	-90	1
[reference]
20	0	0	0	0	-0	0	1.0
21	0	0	0	0	-0	0	1.0
22	0	0	0	0	-0	0	1.0
23	0	0	0	0	-0	0	1.0
[Hips]
20	5.201609612	0.03909999877	7.90871048	0.5329306126	2.554065943	-76.57419586	1.0
21	5.201609612	0.03909999877	7.90871048	0.1532589048	3.006236315	-76.55847168	1.0
22	5.201609612	0.03909999877	7.90871048	0.2517510056	3.610540867	-75.91282654	1.0
23	5.201609612	0.03909999877	7.90871048	0.03593095392	3.371187687	-75.90280151	1.0
[Spine]
20	0	0	0.7457100153	277.8004761	87.34614563	283.9050598	1.0
21	0	0	0.7457100153	296.8114319	87.59537506	303.0133057	1.0
22	0	0	0.7457100153	322.6288757	87.24172974	329.2214661	1.0
23	0	0	0.7457100153	331.088623	87.60167694	337.5148621	1.0
[Spine1]
20	0	0	2.140589952	9.218709946	-2.55036974	-1.075168729	1.0
21	0	0	2.140589952	9.872962952	-2.376414061	-0.9033834338	1.0
22	0	0	2.140589952	10.27385426	-1.990569353	-0.7036153078	1.0
23	0	0	2.140589952	10.05714798	-1.905908823	-0.5204521418	1.0
[Neck]
20	0	0	2.32246995	79.53472137	75.18132782	91.28055573	1.0
21	0	0	2.32246995	80.02112579	75.61561584	92.02168274	1.0
22	0	0	2.32246995	81.19135284	76.36656189	93.68765259	1.0
23	0	0	2.32246995	81.6675415	76.7454834	93.90862274	1.0
[Head]
20	0	-0.1818799973	1.409579992	-74.7077713	98.5215683	-69.34217834	1.0
21	0	-0.1818799973	1.409579992	-75.08694458	98.0140686	-69.41485596	1.0
22	0	-0.1818799973	1.409579992	-75.10133362	97.16220856	-69.48741913	1.0
23	0	-0.1818799973	1.409579992	-73.89550781	96.79556274	-68.18115997	1.0
[LeftShoulder]
20	0.3668199778	0.02662999928	1.946700096	-18.56960678	2.264685154	-15.72297573	1.0
21	0.3668199778	0.02662999928	1.946700096	-18.38865662	2.597860813	-15.49114895	1.0
22	0.3668199778	0.02662999928	1.946700096	-17.98632431	3.171641827	-14.94912148	1.0
23	0.3668199778	0.02662999928	1.946700096	-17.77257156	3.398262739	-14.79692459	1.0
[LeftArm]
20	1.140689969	0	0	64.60483551	70.80926514	11.29561615	1.0
21	1.140689969	0	0	66.22457886	70.74095917	13.87326717	1.0
22	1.140689969	0	0	71.04036713	70.34001923	20.49912262	1.0
23	1.140689969	0	0	74.30531311	69.80964661	25.62644386	1.0
[LeftForeArm]
20	2.749800205	0	0	-3.824958801	-3.326364279	-41.77476883	1.0
21	2.749800205	0	0	-4.741044998	-3.038832426	-36.77465439	1.0
22	2.749800205	0	0	-6.528780937	-2.207257032	-28.08266449	1.0
23	2.749800205	0	0	-8.072153091	-1.492287993	-24.44540215	1.0
[LeftHand]
20	2.295179844	0	0	-5.013016224	-0.6768102646	-13.8856554	1.0
21	2.295179844	0	0	-5.534747601	-1.853093266	-13.37284279	1.0
22	2.295179844	0	0	-6.786719322	-2.841040611	-11.72323799	1.0
23	2.295179844	0	0	-8.120065689	-2.905590296	-10.80051804	1.0
[RightShoulder]
20	-0.3601199985	0.02662999928	1.946700096	-6.812103271	6.025503159	-177.7706604	1.0
21	-0.3601199985	0.02662999928	1.946700096	-7.147588253	5.899006844	-177.3863373	1.0
22	-0.3601199985	0.02662999928	1.946700096	-7.898376465	5.719651699	-177.0457916	1.0
23	-0.3601199985	0.02662999928	1.946700096	-8.159080505	5.733654022	-177.0019226	1.0
[RightArm]
20	-1.140689969	0	0	41.66702271	-74.41060638	-184.1411133	1.0
21	-1.140689969	0	0	39.75892639	-75.38546753	-179.2830505	1.0
22	-1.140689969	0	0	37.53826523	-77.58455658	-171.2238464	1.0
23	-1.140689969	0	0	38.20863342	-79.18322754	-167.8636932	1.0
[RightForeArm]
20	-2.749800205	0	0	4.097276211	-2.286410332	-170.5180359	1.0
21	-2.749800205	0	0	4.018107891	-1.349198699	-170.1532135	1.0
22	-2.749800205	0	0	2.340957165	0.4480969906	-169.3028717	1.0
23	-2.749800205	0	0	0.891373992	1.950529575	-169.0551453	1.0
[RightHand]
20	-2.295179844	0	0	4.70562458	8.570791245	-174.4238281	1.0
21	-2.295179844	0	0	4.573952198	8.659887314	-174.2003326	1.0
22	-2.295179844	0	0	2.789860964	8.540518761	-173.4421234	1.0
23	-2.295179844	0	0	1.187563777	7.907002926	-173.0454407	1.0
[LeftUpLeg]
20	0.9094099998	0	0	12.72138023	-98.89660645	-39.03234863	1.0
21	0.9094099998	0	0	16.81521606	-99.8223114	-41.0456543	1.0
22	0.9094099998	0	0	29.71391296	-100.6400146	-49.28562927	1.0
23	0.9094099998	0	0	37.68416595	-100.7940063	-53.78081512	1.0
[LeftLeg]
20	0	0	-4.498080254	76.27168274	-51.39691925	-0.9463058114	1.0
21	0	0	-4.498080254	77.26380157	-48.39955902	2.925436974	1.0
22	0	0	-4.498080254	78.03898621	-54.53116989	5.228106499	1.0
23	0	0	-4.498080254	78.78225708	-54.56017303	2.280553818	1.0
[LeftFoot]
20	0	0	-3.729400158	-47.05025482	12.80716515	123.643631	1.0
21	0	0	-3.729400158	-42.64199829	12.3924818	124.4556732	1.0
22	0	0	-3.729400158	-37.23615265	6.973888397	116.9011536	1.0
23	0	0	-3.729400158	-35.49258423	7.263267994	115.729332	1.0
[LeftToeBase]
20	0	-1.364109993	-0.5911099911	-1.999999995e-006	0	-1.999999995e-006	1.0
21	0	-1.364109993	-0.5911099911	-1.999999995e-006	0	-1.999999995e-006	1.0
22	0	-1.364109993	-0.5911099911	-1.999999995e-006	0	-1.999999995e-006	1.0
23	0	-1.364109993	-0.5911099911	-1.999999995e-006	0	-1.999999995e-006	1.0
[RightUpLeg]
20	-0.9094099998	0	0	158.0407867	-79.79928589	-172.3249512	1.0
21	-0.9094099998	0	0	150.7933655	-78.58062744	-167.6750488	1.0
22	-0.9094099998	0	0	141.5733643	-76.74562836	-162.3248444	1.0
23	-0.9094099998	0	0	140.451828	-76.47097778	-161.9041443	1.0
[RightLeg]
20	0	0	-4.498080254	177.1701813	-96.86064911	-141.0475006	1.0
21	0	0	-4.498080254	162.1343384	-97.78440094	-121.3834839	1.0
22	0	0	-4.498080254	163.2616425	-98.61467743	-117.9523468	1.0
23	0	0	-4.498080254	182.1961823	-98.91456604	-136.8266449	1.0
[RightFoot]
20	0	0	-3.729400158	-58.10747147	-26.44395828	86.38059235	1.0
21	0	0	-3.729400158	-57.91827011	-26.97254181	84.91368103	1.0
22	0	0	-3.729400158	-57.69163132	-26.74951172	85.50544739	1.0
23	0	0	-3.729400158	-58.76882553	-25.788908	88.87605286	1.0
[RightToeBase]
20	0	-1.364109993	-0.5911099911	-9.999999975e-007	0	0	1.0
21	0	-1.364109993	-0.5911099911	-9.999999975e-007	0	0	1.0
22	0	-1.364109993	-0.5911099911	-9.999999975e-007	0	0	1.0
23	0	-1.364109993	-0.5911099911	-9.999999975e-007	0	0	1.0
[EndOfFile]
